<svg width="828" height="577" viewBox="0 0 828 577" fill="none" xmlns="http://www.w3.org/2000/svg">
<g id="undraw_Ride_a_bicycle_2yok 1" clip-path="url(#clip0)">
<path id="Vector" d="M164.239 92.3001C159.949 97.1882 158.297 104.061 156.45 110.522C141.576 162.593 104.924 204.476 63.1833 234.393C45.507 247.065 23.987 264.059 27.8542 286.78C29.9365 298.982 39.0721 307.964 45.8593 317.902C60.099 338.711 64.7177 366.996 57.9305 391.907C50.2118 420.25 28.637 446.697 35.3145 475.357C39.4322 492.998 53.4136 505.553 66.8548 516.344C87.8242 533.166 109.462 548.926 131.767 563.622C146.719 573.472 162.626 583.057 180.052 584.306C195.396 585.409 210.426 579.933 224.994 574.53C237.723 569.804 250.773 564.886 261.052 555.419C267.76 549.237 273.107 541.262 280.56 536.205C298.064 524.326 320.547 531.853 340.618 536.94C387.98 548.877 438.668 544.518 483.736 524.635C552.867 494.13 605.56 430.071 673.181 395.7C702.255 380.918 733.881 371.744 760.803 352.707C775.97 341.867 789.004 328.623 799.318 313.572C819.672 284.09 830.678 246.499 827.5 209.702C824.322 172.906 806.512 137.447 778.542 116.674C748.598 94.4391 710.78 90.2861 676.711 76.9376C641.531 63.148 610.233 39.45 575.389 24.6534C547.195 12.7138 516.511 6.8526 485.589 7.50001C454.668 8.14743 424.292 15.287 396.693 28.3948C358.772 46.4036 320.335 88.4191 278.102 91.6092C248.01 93.8143 187.739 65.5296 164.239 92.3001Z" fill="url(#paint0_linear)"/>
<g id="left-wheel">
<path id="Vector_2" d="M199.802 527.024L194.894 455.033L194.792 454.879L189.844 456.496L167.08 518.865L130.874 494.763L188.545 455.504L188.6 455.349L188.928 455.239L192.647 452.703L132.181 420.868L117.37 436.157L119.718 450.49L189.249 451.681V453.151L118.419 451.961L115.742 435.687L136.017 414.767L166.352 381.543L166.892 382.917L173.311 376.302L197.156 380.315V379.426L198.722 379.47V380.58L234.231 386.548L201.125 448.741L196.295 452.027V452.394V452.806L272.856 427.755L263.767 494.799L198.792 455.937L196.506 454.732L234.818 512.713L199.802 527.024ZM196.671 457.679L201.25 524.848L232.602 512.073L196.671 457.679ZM133.59 494.748L166.305 516.527L187.707 457.914L133.59 494.748ZM198.033 453.835L199.669 454.695L262.569 492.33L271.024 429.946L198.033 453.835ZM192.475 448.543L194.439 451.52L194.784 451.284L197.132 381.8L173.851 377.889L167.463 384.505L192.475 448.543ZM133.433 419.831L192.021 450.704L191.003 449.138L166.281 385.725L137.168 415.767L133.433 419.831ZM198.722 382.057L196.373 450.211L199.911 447.8L231.937 387.658L198.722 382.057Z" fill="#535461"/>
<path id="Vector_3" d="M285.671 433.643C282.531 420.545 276.175 408.317 267.11 397.934C263.744 394.076 260.033 390.495 256.017 387.232C240.575 374.713 221.142 367.363 200.77 366.335C180.398 365.308 160.239 370.66 143.457 381.554C126.675 392.447 114.22 408.264 108.046 426.522C101.873 444.78 102.331 464.447 109.348 482.434C116.365 500.422 129.545 515.713 146.818 525.907C164.091 536.101 184.48 540.621 204.785 538.758C225.09 536.896 244.161 528.755 259.006 515.615C273.851 502.474 283.629 485.077 286.806 466.154C287.545 461.699 287.917 457.197 287.917 452.688C287.923 446.281 287.169 439.894 285.671 433.643ZM195.496 517.696C181.224 517.682 167.302 513.541 155.624 505.836C143.946 498.13 135.079 487.235 130.229 474.631C125.378 462.027 124.779 448.327 128.513 435.392C132.248 422.457 140.134 410.916 151.1 402.338C162.066 393.761 175.58 388.562 189.803 387.45C204.027 386.337 218.27 389.365 230.596 396.122C242.922 402.878 252.733 413.035 258.695 425.212C264.656 437.388 266.479 450.993 263.916 464.177C260.98 479.204 252.526 492.789 240.025 502.567C227.524 512.346 211.767 517.699 195.496 517.696Z" fill="#535461"/>
<path id="Vector_4" d="M195.496 461.81C201.035 461.81 205.524 457.595 205.524 452.394C205.524 447.194 201.035 442.978 195.496 442.978C189.958 442.978 185.468 447.194 185.468 452.394C185.468 457.595 189.958 461.81 195.496 461.81Z" fill="#535461"/>
</g>
<g id="right-wheel">
<path id="Vector_5" d="M533.436 527.318L528.536 455.356L528.434 455.202L523.487 456.819L500.714 519.159L464.508 495.049L522.195 455.79L522.25 455.636L522.579 455.526L526.297 452.99L465.831 421.155L451.012 436.444L453.361 450.777L522.876 451.938V453.409L452.046 452.218L449.384 435.966L469.651 415.054L499.963 381.851L500.503 383.226L506.922 376.611L530.83 380.631V379.742L532.395 379.786V380.896L567.904 386.864L534.767 449.086L529.937 452.372V452.74V453.151L606.506 428.101L597.417 495.145L532.442 456.283L530.156 455.077L568.468 513.065L533.436 527.318ZM530.305 457.973L534.885 525.142L566.237 512.367L530.305 457.973ZM467.232 495.049L499.947 516.829L521.35 458.216L467.232 495.049ZM531.675 454.136L533.311 454.996L596.212 492.631L604.666 430.247L531.675 454.136ZM526.117 448.844L528.082 451.821L528.426 451.586L530.775 382.101L507.493 378.176L501.106 384.792L526.117 448.844ZM467.099 420.14L525.686 451.012L524.669 449.447L499.947 386.034L470.826 416.083L467.099 420.14ZM532.364 382.366L530.016 450.498L533.554 448.087L565.58 387.945L532.364 382.366Z" fill="#535461"/>
<path id="Vector_6" d="M529.452 366.504C521.143 366.495 512.872 367.543 504.863 369.62C500.733 370.69 496.688 372.033 492.761 373.641C471.835 382.158 455.018 397.66 445.561 417.147C436.105 436.634 434.682 458.722 441.567 479.138C448.453 499.553 463.157 516.846 482.836 527.67C502.515 538.494 525.77 542.08 548.103 537.735C570.435 533.39 590.257 521.422 603.736 504.147C617.214 486.872 623.389 465.517 621.068 444.213C618.747 422.91 608.093 403.171 591.168 388.817C574.244 374.463 552.251 366.512 529.444 366.504H529.452ZM529.139 517.99C513.262 517.984 497.866 512.879 485.506 503.522C473.146 494.166 464.567 481.12 461.193 466.553C457.819 451.986 459.854 436.774 466.959 423.443C474.064 410.111 485.812 399.463 500.252 393.267C503.925 391.688 507.739 390.416 511.65 389.467C521.21 387.136 531.189 386.745 540.923 388.318C550.657 389.891 559.922 393.393 568.103 398.59C576.283 403.787 583.191 410.56 588.366 418.459C593.542 426.358 596.866 435.201 598.119 444.4C599.371 453.599 598.522 462.944 595.629 471.811C592.736 480.678 587.865 488.865 581.34 495.827C574.815 502.789 566.785 508.367 557.786 512.188C548.787 516.009 539.024 517.987 529.147 517.99H529.139Z" fill="#535461"/>
<path id="Vector_7" d="M529.139 462.104C534.677 462.104 539.167 457.889 539.167 452.688C539.167 447.488 534.677 443.272 529.139 443.272C523.6 443.272 519.111 447.488 519.111 452.688C519.111 457.889 523.6 462.104 529.139 462.104Z" fill="#535461"/>
</g>
<g id="man-on-bike">
<path id="Vector_8" d="M302.955 407.441L269.523 376.463L259.076 386.404L292.508 417.382L302.955 407.441Z" fill="#89888F"/>
<path id="Vector_9" d="M277.498 361.638C277.498 361.638 296.904 352.023 304.404 345.834C308.918 342.125 313.772 338.797 318.91 335.889L343.256 321.974L394.14 318.299L396.488 326.385C396.488 326.385 400.402 338.145 361.261 348.436C322.119 358.727 302.548 374.898 302.548 374.898C302.548 374.898 277.498 382.954 277.498 361.638Z" fill="#DB8B8B"/>
<path id="Vector_10" opacity="0.1" d="M304.623 373.303C303.237 374.295 302.548 374.868 302.548 374.868C302.548 374.868 277.498 382.954 277.498 361.638C277.498 361.638 278.711 361.035 280.629 360.028C282.567 362.991 285.281 365.437 288.513 367.135C291.744 368.832 295.385 369.723 299.088 369.723H301.742L304.623 373.303Z" fill="black"/>
<path id="Vector_11" opacity="0.05" d="M395.752 330.442C393.576 334.771 386.069 341.887 361.261 348.407C329.47 356.764 310.588 368.988 304.623 373.303C303.237 374.295 302.548 374.868 302.548 374.868C302.548 374.868 277.498 382.954 277.498 361.638C277.498 361.638 278.711 361.035 280.629 360.028C286.446 357.036 298.76 350.472 304.38 345.805C308.894 342.095 313.748 338.766 318.886 335.859L343.232 321.945L352.297 321.291L394.116 318.27L396.465 326.355C396.465 326.355 397.013 327.935 395.752 330.442Z" fill="black"/>
<path id="Vector_12" d="M277.889 356.86L257.144 369.723L317.892 417.501C317.892 417.501 326.816 412.356 322.119 406.476C322.119 406.476 306.463 393.98 305.68 376.339L300.983 370.458H298.329C293.842 370.459 289.465 369.151 285.803 366.715C282.142 364.279 279.376 360.835 277.889 356.86V356.86Z" fill="#1B1C1F"/>
<path id="Vector_13" opacity="0.1" d="M395.752 330.442C383.227 324.76 352.65 324.15 352.65 324.15L352.321 321.291L394.14 318.27L396.488 326.355C396.488 326.355 397.013 327.935 395.752 330.442Z" fill="black"/>
<path id="Vector_14" d="M352.65 322.68C352.65 322.68 389.443 323.415 398.837 330.765L394.14 241.824H343.256L352.65 322.68Z" fill="#ABB1D1"/>
<path id="Vector_15" opacity="0.05" d="M352.65 322.312C352.65 322.312 389.443 323.047 398.837 330.398L394.14 241.457H343.256L352.65 322.312Z" fill="black"/>
<path id="Vector_16" d="M382.209 268.257C382.209 268.257 474.309 265.316 476.188 276.497C478.067 287.677 384.088 282.965 384.088 282.965C384.088 282.965 376.573 275.901 382.209 268.257Z" fill="#535461"/>
<path id="Vector_17" opacity="0.05" d="M382.209 268.257C382.209 268.257 474.309 265.316 476.188 276.497C478.067 287.677 384.088 282.965 384.088 282.965C384.088 282.965 376.573 275.901 382.209 268.257Z" fill="black"/>
<path id="Vector_18" d="M307.652 312.97H291.362V445.926H307.652V312.97Z" fill="#89888F"/>
<path id="Vector_19" opacity="0.1" d="M307.652 312.962V323.202C302.235 323.863 296.693 324.282 291.362 324.444V312.962H307.652Z" fill="black"/>
<path id="Vector_20" d="M306.431 301.944C304.146 301.778 301.872 301.491 299.621 301.084C290.79 299.496 268.527 296.167 262.538 301.819C255.023 308.876 257.528 321.232 277.576 322.996C297.624 324.76 332.085 320.056 338.981 312.992C338.981 312.962 326.511 303.392 306.431 301.944Z" fill="#535461"/>
<path id="Vector_21" d="M303.269 349.443L474.317 299.438L479.953 311.794L304.521 368.268L303.269 349.443Z" fill="#89888F"/>
<path id="Vector_22" d="M354.02 428.277L477.449 314.146L484.337 323.555L366.545 438.862L354.02 428.277Z" fill="#89888F"/>
<path id="Vector_23" opacity="0.1" d="M511.642 389.467C507.732 390.416 503.917 391.688 500.244 393.267L492.761 373.634C496.688 372.026 500.733 370.682 504.863 369.613L511.642 389.467Z" fill="black"/>
<path id="Vector_24" d="M532.583 447.102L523.815 451.806L462.645 291.323L459.905 284.141L474.317 276.489L477.926 287.059L532.583 447.102Z" fill="#89888F"/>
<path id="Vector_25" opacity="0.1" d="M477.926 287.059L462.645 291.323L459.905 284.141L474.317 276.489L477.926 287.059Z" fill="black"/>
<path id="Vector_26" d="M384.714 299.438L470.552 271.785C470.552 271.785 485.59 273.549 479.946 285.317L393.49 309.434C393.49 309.434 380.338 310.61 384.714 299.438Z" fill="#535461"/>
<path id="Vector_27" opacity="0.1" d="M287.917 452.688C287.917 457.197 287.545 461.699 286.806 466.154C279.291 465.647 271.525 464.912 263.916 464.177C265.606 455.437 265.396 446.466 263.297 437.803C270.711 436.333 278.281 434.929 285.671 433.658C287.168 439.904 287.921 446.286 287.917 452.688Z" fill="black"/>
<path id="Vector_28" opacity="0.1" d="M307.652 430.284V445.918H291.362V432.688C296.998 431.769 302.478 430.953 307.652 430.284Z" fill="black"/>
<path id="Vector_29" d="M202.393 452.416C202.393 452.416 333.971 420.074 344.618 432.416C355.264 444.757 366.545 461.237 333.369 467.117C300.192 472.998 199.911 457.113 199.911 457.113L202.393 452.416Z" fill="#89888F"/>
<path id="Vector_30" opacity="0.1" d="M267.11 397.934L250.388 412.305C247.427 408.735 244.08 405.464 240.399 402.543L256.009 387.232C260.028 390.495 263.742 394.076 267.11 397.934Z" fill="black"/>
<path id="Vector_31" d="M198.009 445.926L296.372 349.443L299.511 371.796L203.019 454.746L198.009 445.926Z" fill="#89888F"/>
<path id="Vector_32" opacity="0.1" d="M196.757 461.81C202.295 461.81 206.785 457.595 206.785 452.394C206.785 447.194 202.295 442.978 196.757 442.978C191.218 442.978 186.729 447.194 186.729 452.394C186.729 457.595 191.218 461.81 196.757 461.81Z" fill="black"/>
<path id="Vector_33" opacity="0.1" d="M528.513 460.928C534.051 460.928 538.541 456.713 538.541 451.512C538.541 446.312 534.051 442.096 528.513 442.096C522.974 442.096 518.484 446.312 518.484 451.512C518.484 456.713 522.974 460.928 528.513 460.928Z" fill="black"/>
<path id="Vector_34" opacity="0.1" d="M350.88 461.81C361.953 461.81 370.929 453.382 370.929 442.986C370.929 432.589 361.953 424.161 350.88 424.161C339.808 424.161 330.832 432.589 330.832 442.986C330.832 453.382 339.808 461.81 350.88 461.81Z" fill="black"/>
<path id="Vector_35" d="M352.141 461.81C363.213 461.81 372.189 453.382 372.189 442.986C372.189 432.589 363.213 424.161 352.141 424.161C341.068 424.161 332.092 432.589 332.092 442.986C332.092 453.382 341.068 461.81 352.141 461.81Z" fill="#535461"/>
<path id="Vector_36" d="M346.788 441.571L346.782 441.576C344.427 443.229 343.946 446.361 345.707 448.572L361.619 468.551C363.379 470.762 366.715 471.214 369.07 469.56L369.076 469.556C371.43 467.903 371.912 464.771 370.151 462.56L354.239 442.581C352.478 440.37 349.142 439.918 346.788 441.571Z" fill="#6C63FF"/>
<path id="Vector_37" d="M442.675 181.55L440.812 203.683C440.598 206.486 440.637 209.302 440.929 212.099C441.172 214.576 440.929 218.913 438.346 225.528C435.029 233.979 433.315 242.91 433.281 251.917V277.107L415.276 274.167C415.276 274.167 416.059 238.884 412.928 233.004C409.796 227.123 415.276 174.935 415.276 174.935L442.675 181.55Z" fill="#DB8B8B"/>
<path id="Vector_38" opacity="0.05" d="M441.751 192.517L440.812 203.683C440.6 206.484 440.642 209.297 440.937 212.091C441.18 214.569 440.937 218.905 438.354 225.528C435.037 233.979 433.323 242.91 433.289 251.917V277.107L415.284 274.167C415.284 274.167 416.067 238.884 412.935 233.004C410.72 228.836 412.818 201.441 414.235 185.806C414.822 179.374 415.284 174.935 415.284 174.935L442.683 181.55L441.751 192.517Z" fill="black"/>
<path id="Vector_39" d="M353.448 350.612L346.677 386.776C345.823 391.605 344.513 396.352 342.762 400.963C338.793 411.151 341.33 425.433 343.256 433.224C344.109 436.664 344.821 438.84 344.821 438.84L324.468 449.131L318.205 444.72V441.78L317.422 376.361C312.725 366.07 314.291 350.634 317.422 344.753C318.313 342.821 318.939 340.791 319.285 338.711C320.851 330.832 321.336 319.762 321.336 319.762C321.336 319.762 333.862 299.915 348.735 313.146C354.215 318.02 356.298 324.393 356.736 330.493C357.503 340.939 353.448 350.612 353.448 350.612Z" fill="#DB8B8B"/>
<path id="Vector_40" opacity="0.1" d="M356.736 330.471C345.878 336.528 326.988 338.241 319.285 338.689C320.851 330.81 321.336 319.74 321.336 319.74C321.336 319.74 333.862 299.893 348.735 313.124C354.215 317.998 356.298 324.37 356.736 330.471Z" fill="black"/>
<path id="Vector_41" d="M383.18 312.389C374.855 316.552 366.989 321.476 359.695 327.09C347.17 336.646 315.857 337.381 315.857 337.381V326.355C316.639 313.124 303.331 298.423 285.326 257.26C273.826 230.975 277.012 216.098 280.817 208.747C282.978 204.594 285.326 202.867 285.326 202.867L383.18 220.508L386.679 230.357L394.14 251.38C394.14 251.38 366.741 252.85 362.044 255.055C357.347 257.26 360.478 277.107 360.478 277.107C355.781 297.688 383.18 312.389 383.18 312.389Z" fill="#ABB1D1"/>
<path id="Vector_42" opacity="0.1" d="M442.675 181.55L441.751 192.517C428.13 196.192 418.407 184.49 418.407 184.49C416.986 184.848 415.59 185.287 414.227 185.806C414.814 179.374 415.276 174.935 415.276 174.935L442.675 181.55Z" fill="black"/>
<path id="Vector_43" opacity="0.1" d="M386.679 230.357C386.311 233.79 386.311 235.944 386.311 235.944C386.311 235.944 368.306 249.91 337.776 228.593C307.245 207.277 279.846 213.157 279.846 213.157C279.846 213.157 280.167 211.452 280.817 208.747C282.978 204.594 285.326 202.867 285.326 202.867L383.18 220.508L386.679 230.357Z" fill="black"/>
<path id="Vector_44" d="M453.228 152.846C451.185 167.805 450.503 186.659 450.503 186.659C432.498 199.89 418.407 182.983 418.407 182.983C401.404 187.269 393.412 201.242 389.646 213.437C387.629 220.033 386.509 226.842 386.311 233.702C386.311 233.702 381.552 237.377 372.784 238.112C364.494 238.766 352.61 236.738 337.776 226.351C307.245 205.035 279.846 210.915 279.846 210.915C279.846 210.915 285.326 181.513 297.851 172.693C310.377 163.872 319.771 152.846 335.427 119.034C351.084 85.2218 383.18 93.3073 383.18 93.3073C383.18 93.3073 384.746 86.6919 413.71 93.3073C420.765 95.0435 427.295 98.2917 432.788 102.797C448.28 115.028 455.795 134 453.228 152.846Z" fill="white"/>
<path id="Vector_45" d="M424.177 109.883C424.138 110.86 424.052 111.948 423.911 113.161C422.345 126.392 420.779 124.922 403.557 127.862C392.848 129.692 387.282 121.291 384.605 114.675C383.636 112.279 382.905 109.803 382.421 107.281L419.996 101.4C419.996 101.4 424.498 100.217 424.177 109.883Z" fill="#DB8B8B"/>
<path id="Vector_46" opacity="0.05" d="M389.646 213.473C387.629 220.07 386.509 226.879 386.311 233.739C386.311 233.739 381.552 237.414 372.784 238.149C372.537 237.681 372.348 237.188 372.22 236.679C370.655 230.063 358.912 218.303 358.912 218.303C351.084 211.687 349.518 199.926 349.518 199.926L336.602 164.276L332.296 160.969C332.296 160.969 350.301 147.738 365.958 158.764C381.614 169.789 376.917 193.311 376.917 193.311L380.049 201.396C383.297 203.969 386.601 208.504 389.646 213.473Z" fill="black"/>
<path id="Vector_47" d="M334.644 160.234L351.867 199.191C351.867 199.191 353.432 210.952 361.261 217.568C361.261 217.568 373.003 229.328 374.569 235.944C376.134 242.559 398.054 260.201 398.054 260.201C398.054 260.201 418.407 277.842 419.973 284.457C419.973 284.457 438.761 289.603 436.412 299.893C436.412 299.893 450.503 286.662 436.412 274.167C422.322 261.671 403.534 235.944 403.534 235.944C403.534 235.944 392.574 208.747 382.397 200.661L379.266 192.576C379.266 192.576 383.963 169.054 368.306 158.029C352.65 147.003 334.644 160.234 334.644 160.234Z" fill="#DB8B8B"/>
<path id="Vector_48" opacity="0.1" d="M344.821 438.818L324.468 449.109L318.205 444.698V441.758C325.238 441.289 332.071 439.353 338.206 436.091C340.085 435.091 341.854 434.106 343.271 433.239C344.093 436.642 344.821 438.818 344.821 438.818Z" fill="black"/>
<path id="Vector_49" opacity="0.1" d="M368.306 129.362L379.266 169.789C379.266 169.789 345.604 174.935 338.559 169.789C331.513 164.644 318.205 163.174 318.205 163.174C318.205 163.174 332.296 124.951 340.124 120.541C347.953 116.131 368.306 129.362 368.306 129.362Z" fill="black"/>
<path id="Vector_50" d="M368.306 127.891L379.266 168.319C379.266 168.319 345.604 173.465 338.559 168.319C331.513 163.174 318.205 161.704 318.205 161.704C318.205 161.704 332.296 123.481 340.124 119.071C347.953 114.661 368.306 127.891 368.306 127.891Z" fill="white"/>
<path id="Vector_51" opacity="0.1" d="M424.177 109.148C421.984 111.99 419.196 114.38 415.983 116.172C412.769 117.965 409.2 119.121 405.493 119.57C401.787 120.019 398.021 119.751 394.429 118.783C390.837 117.815 387.494 116.167 384.605 113.94C383.636 111.544 382.905 109.068 382.421 106.546L419.996 100.665C419.996 100.665 424.498 99.4817 424.177 109.148Z" fill="black"/>
<path id="Vector_52" d="M429.367 93.3441C429.367 100.167 426.48 106.711 421.342 111.536C416.204 116.36 409.235 119.071 401.968 119.071C394.701 119.071 387.732 116.36 382.594 111.536C377.456 106.711 374.569 100.167 374.569 93.3441C374.569 92.9177 374.569 92.4914 374.569 92.0651C374.749 85.2419 377.809 78.7656 383.075 74.0608C388.341 69.356 395.382 66.8082 402.649 66.9778C409.916 67.1474 416.813 70.0206 421.824 74.9652C426.834 79.9098 429.548 86.5209 429.367 93.3441Z" fill="#DB8B8B"/>
<path id="Vector_53" opacity="0.05" d="M301.374 172.362C301.374 172.362 321.728 177.507 327.99 190.738C334.253 203.969 351.194 206.388 351.194 206.388" fill="black"/>
<path id="Vector_54" d="M378.092 463.442H331.122V477.408H378.092V463.442Z" fill="#89888F"/>
<path id="Vector_55" d="M338.175 437.524C342.379 435.319 346.066 433.114 346.387 432.202C346.387 432.202 356.994 442.714 366.443 445.977C369.62 447.079 372.662 448.499 375.516 450.211C379.258 452.416 384.597 455.011 389.443 455.011C389.443 455.011 400.402 463.832 379.266 465.302C358.129 466.772 308.811 461.626 308.811 461.626L311.942 443.25C321.091 443.754 330.201 441.766 338.175 437.524Z" fill="#1B1C1F"/>
</g>
<g id="hat">
<path id="Vector_56" d="M355.488 75.5533C357.156 80.4634 365.164 80.6178 369.274 84.2342C371.411 86.116 372.405 88.8945 374.754 90.5704C378.018 92.9078 382.731 92.3933 386.888 91.8347C395.256 90.7174 404.243 90.0485 411.789 93.4371C414.467 94.6352 416.87 96.3111 419.665 97.2887C422.459 98.2664 425.927 98.384 428.198 96.6493C430.014 95.26 430.679 92.974 432.323 91.4451C433.599 90.2396 435.376 89.5634 436.832 88.5049C440.026 86.2409 441.404 82.551 442.312 79.0227C444.191 71.7604 444.731 63.9321 441.529 57.0447C438.327 50.1573 430.624 44.5489 422.217 44.909C419.641 45.0193 417.128 45.6441 414.561 45.9087C407.867 46.5482 401.253 44.4386 394.536 44.0784C392.588 43.8558 390.611 44.109 388.798 44.8135C387.43 45.5271 386.251 46.5192 385.345 47.7169C382.27 51.4991 380.165 55.8957 379.192 60.5656C378.41 64.0865 378.37 67.2766 373.775 67.8206C368.554 68.4674 351.958 65.167 355.488 75.5533Z" fill="#472727"/>
<path id="Vector_57" opacity="0.1" d="M427.367 90.3441C427.369 92.7152 427.022 95.0751 426.334 97.3565C424.216 97.7899 422.007 97.6 420.008 96.8125C417.081 95.732 414.568 93.8723 411.757 92.5345C403.843 88.7711 394.425 89.5135 385.658 90.7557C381.305 91.3731 376.366 91.9465 372.945 89.3444C372.827 89.2573 372.715 89.164 372.608 89.0651C372.789 82.2419 375.849 75.7656 381.115 71.0608C386.381 66.356 393.421 63.8082 400.688 63.9778C407.955 64.1474 414.852 67.0206 419.863 71.9652C424.873 76.9098 427.587 83.5209 427.406 90.3441H427.367Z" fill="black"/>
</g>
</g>
<defs>
<linearGradient id="paint0_linear" x1="704" y1="130" x2="27" y2="500" gradientUnits="userSpaceOnUse">
<stop offset="0.0364583" stop-color="#71E4AD"/>
<stop offset="0.21875" stop-color="#63FFB4"/>
<stop offset="0.9999" stop-color="#4721E0" stop-opacity="0.21"/>
<stop offset="1" stop-color="#4721E0" stop-opacity="0"/>
</linearGradient>
<clipPath id="clip0">
<rect width="828" height="577" fill="white"/>
</clipPath>
</defs>
</svg>
